<?xml version="1.0" standalone="no"?>
<!DOCTYPE svg PUBLIC "-//W3C//DTD SVG 20010904//EN"
 "http://www.w3.org/TR/2001/REC-SVG-20010904/DTD/svg10.dtd">
<svg version="1.0" xmlns="http://www.w3.org/2000/svg"
 width="200.000000pt" height="200.000000pt" viewBox="0 0 200.000000 200.000000"
 preserveAspectRatio="xMidYMid meet">

<g transform="translate(0.000000,200.000000) scale(0.100000,-0.100000)"
fill="#000000" stroke="none">
<path d="M944 1915 c-16 -11 -17 -16 -6 -40 16 -35 10 -41 -20 -21 -12 9 -31
16 -41 16 -30 0 -17 -42 18 -60 l30 -14 -30 -6 c-45 -8 -42 -43 5 -50 37 -5
60 -35 60 -78 0 -37 -16 -58 -72 -92 -124 -76 -167 -128 -189 -229 -14 -67
-39 -96 -99 -116 -62 -21 -96 -60 -117 -137 -18 -66 -31 -77 -70 -59 -19 9
-29 9 -39 0 -23 -19 -16 -40 16 -52 36 -14 37 -20 5 -41 -31 -20 -33 -52 -3
-62 17 -5 27 0 44 22 l23 28 3 -45 c3 -42 5 -44 33 -44 28 0 30 3 33 43 4 48
14 53 30 17 14 -31 37 -41 57 -25 22 18 18 40 -12 72 -26 27 -26 29 -10 46 16
15 20 15 44 2 48 -27 81 -88 93 -170 23 -158 48 -196 175 -265 181 -98 217
-155 165 -259 -30 -60 -63 -80 -142 -84 -61 -4 -75 -1 -144 32 -42 20 -80 33
-85 30 -32 -19 26 -88 113 -135 57 -30 71 -33 148 -34 68 0 95 5 135 23 60 27
129 92 157 147 26 49 36 167 19 227 -17 59 -70 129 -124 164 -25 16 -73 46
-105 66 -98 62 -120 136 -55 185 21 15 49 41 62 56 13 16 36 33 50 39 21 8 29
6 43 -12 10 -12 23 -40 30 -61 11 -37 10 -41 -15 -67 -48 -50 -30 -81 32 -56
43 18 41 18 41 -9 0 -13 9 -32 20 -42 28 -25 54 -4 45 36 -9 41 -1 48 45 36
34 -10 43 -9 57 6 21 20 8 50 -23 55 -46 8 -48 12 -19 42 45 47 7 94 -40 50
-14 -13 -27 -22 -29 -19 -2 2 -17 32 -34 65 -34 68 -81 114 -117 114 -39 0
-51 25 -32 65 21 44 33 44 51 1 17 -41 60 -66 113 -66 49 0 60 -8 65 -45 4
-36 28 -40 44 -6 l12 24 13 -22 c19 -30 49 -28 49 3 0 14 -4 28 -10 31 -18 11
-10 26 13 25 42 -4 48 0 45 23 -2 17 -11 23 -37 27 -31 4 -33 6 -18 19 22 18
22 47 0 55 -12 5 -23 -1 -36 -18 -28 -39 -86 -36 -121 5 -25 29 -30 48 -27 94
4 48 14 67 53 95 36 26 50 30 107 30 90 0 131 13 183 59 64 57 102 132 103
204 0 53 -3 61 -32 87 -56 50 -153 64 -251 35 -65 -20 -100 -55 -146 -149 -21
-42 -46 -81 -56 -86 -10 -6 -38 -10 -61 -10 -37 0 -48 6 -86 45 -53 56 -59
105 -18 153 29 34 32 57 9 66 -23 9 -23 9 -44 -26 -12 -20 -21 -27 -21 -18 -1
8 -3 22 -4 30 -1 8 -3 20 -4 26 -2 19 -28 24 -47 9z"/>
</g>
</svg>
