<?xml version="1.0" encoding="UTF-8"?>
<svg version="1.1" xmlns="http://www.w3.org/2000/svg" width="800" height="800">
<path d="M0 0 C1.23600952 0.00182281 2.47201904 0.00364563 3.7454834 0.00552368 C21.8558967 0.05049357 39.58361199 0.47625036 57.5 3.3125 C58.61407227 3.47878906 59.72814453 3.64507812 60.87597656 3.81640625 C97.24516415 9.33463083 132.5657034 19.83853053 166.00585938 35.17041016 C168.29360104 36.21798802 170.59006198 37.24270218 172.890625 38.26171875 C192.90956434 47.25327625 211.49905026 58.82889283 229.5 71.3125 C230.53471436 72.02647949 230.53471436 72.02647949 231.59033203 72.75488281 C239.52837404 78.2515235 247.12813775 84.0708542 254.5 90.3125 C255.28793945 90.97306396 255.28793945 90.97306396 256.09179688 91.64697266 C265.52335907 99.55704888 274.59997817 107.80993974 283.5 116.3125 C284.00563477 116.79477051 284.51126953 117.27704102 285.03222656 117.77392578 C290.62014254 123.13206913 290.62014254 123.13206913 292.5 125.3125 C292.5 125.9725 292.5 126.6325 292.5 127.3125 C293.16 127.3125 293.82 127.3125 294.5 127.3125 C295.8046875 128.5703125 295.8046875 128.5703125 297.375 130.4375 C298.00019531 131.17613281 298.62539063 131.91476563 299.26953125 132.67578125 C300.37361328 133.98095703 300.37361328 133.98095703 301.5 135.3125 C302.80517578 136.78783203 302.80517578 136.78783203 304.13671875 138.29296875 C322.80753284 159.45683322 338.58419875 183.21687544 352.17431641 207.90771484 C353.37669599 210.08882699 354.59824121 212.25788765 355.82421875 214.42578125 C376.18084774 250.97806458 388.77155362 292.43168796 395.75 333.5 C395.87542175 334.23210693 396.00084351 334.96421387 396.13006592 335.71850586 C399.74790116 357.08302171 400.87879726 378.15345743 400.8125 399.8125 C400.80976578 401.66651428 400.80976578 401.66651428 400.80697632 403.5579834 C400.76200643 421.6683967 400.33624964 439.39611199 397.5 457.3125 C397.25056641 458.9836084 397.25056641 458.9836084 396.99609375 460.68847656 C391.48508071 497.01013474 381.01691223 532.33798254 365.68505859 565.72802734 C364.55977619 568.18213521 363.45980758 570.64622458 362.36328125 573.11328125 C350.01182296 600.47810058 333.14871278 625.86061892 314.5 649.3125 C314.07348145 649.85084473 313.64696289 650.38918945 313.20751953 650.94384766 C308.58009637 656.76144781 303.74620129 662.3631903 298.73828125 667.85546875 C297.26541193 669.47228342 295.80407575 671.099693 294.35546875 672.73828125 C286.58241071 681.51973601 278.42171063 690.00156038 269.484375 697.609375 C267.15378876 699.60964193 264.89305926 701.67916328 262.625 703.75 C225.31751727 737.28734496 179.07334795 763.59794894 131.5 779.3125 C130.08065718 779.78624273 128.66139323 780.26022176 127.2421875 780.734375 C126.46770264 780.99154297 125.69321777 781.24871094 124.89526367 781.51367188 C123.32985523 782.03574062 121.76612454 782.56287461 120.2043457 783.09570312 C87.29045538 794.23463119 50.82949315 800.37306792 16.09765625 800.515625 C14.94968063 800.52263931 13.80170502 800.52965363 12.61894226 800.53688049 C8.93342117 800.5542927 5.24806072 800.56073299 1.5625 800.5625 C0.30401245 800.56317474 -0.9544751 800.56384949 -2.25109863 800.56454468 C-20.5238213 800.54895759 -38.42695555 800.23470362 -56.5 797.3125 C-58.29872559 797.02318604 -58.29872559 797.02318604 -60.13378906 796.72802734 C-68.28213662 795.38610754 -76.39283051 793.88162958 -84.5 792.3125 C-86.08959529 792.01688997 -87.67940904 791.72244993 -89.26953125 791.4296875 C-94.89724001 790.36362104 -100.24140422 789.12970727 -105.65454102 787.27636719 C-108.5234529 786.30455559 -111.40330446 785.37015637 -114.28656006 784.44189453 C-131.58877054 778.86511262 -148.62532828 773.13548374 -165.11865234 765.42236328 C-167.35631053 764.37946866 -169.60590003 763.37041488 -171.86328125 762.37109375 C-207.34519485 746.47027834 -239.58262172 723.43841484 -268.25 697.34375 C-270.24216476 695.54526792 -272.26779511 693.80049915 -274.3125 692.0625 C-278.18377629 688.68610852 -281.84711917 685.10902457 -285.5 681.5 C-286.08885986 680.92411133 -286.67771973 680.34822266 -287.28442383 679.75488281 C-288.72951182 678.31299617 -290.11990861 676.81671546 -291.5 675.3125 C-291.5 674.6525 -291.5 673.9925 -291.5 673.3125 C-292.16 673.3125 -292.82 673.3125 -293.5 673.3125 C-294.83984375 672.01953125 -294.83984375 672.01953125 -296.4375 670.125 C-297.36949219 669.02671875 -297.36949219 669.02671875 -298.3203125 667.90625 C-299.03960937 667.0503125 -299.75890625 666.194375 -300.5 665.3125 C-301.34304688 664.3328125 -302.18609375 663.353125 -303.0546875 662.34375 C-309.47611496 654.86860895 -315.61933692 647.22009522 -321.5 639.3125 C-321.9110498 638.75981445 -322.32209961 638.20712891 -322.74560547 637.63769531 C-329.04070305 629.11805133 -334.79184476 620.32021222 -340.30175781 611.27539062 C-341.43925032 609.41201659 -342.58934796 607.55702936 -343.7421875 605.703125 C-378.18470475 549.8774812 -399.6012445 481.41147125 -399.66796875 415.62890625 C-399.67129715 414.45271225 -399.67462555 413.27651825 -399.67805481 412.06468201 C-399.68308623 409.58812853 -399.68546432 407.11156835 -399.68530273 404.63500977 C-399.68747601 400.91605958 -399.70563667 397.19741302 -399.72460938 393.47851562 C-399.77224692 373.9184081 -398.36680194 354.97394572 -395.125 335.6875 C-395.01506714 335.02695618 -394.90513428 334.36641235 -394.79187012 333.68585205 C-394.04849609 329.22440588 -393.27967169 324.76776678 -392.5 320.3125 C-392.34305664 319.39726562 -392.18611328 318.48203125 -392.02441406 317.5390625 C-389.31575467 302.07530726 -384.41382643 287.19491523 -379.5 272.3125 C-379.17515625 271.32846191 -378.8503125 270.34442383 -378.515625 269.33056641 C-356.93813863 204.99811365 -316.55142097 143.256797 -264.5 99.3125 C-263.05173828 98.06533203 -263.05173828 98.06533203 -261.57421875 96.79296875 C-201.49159455 45.2032681 -127.19991912 11.90372164 -48.5 2.3125 C-47.78815552 2.22529694 -47.07631104 2.13809387 -46.34289551 2.04824829 C-30.89743478 0.21504234 -15.54106718 -0.04757044 0 0 Z M-165.5 234.3125 C-165.5 343.8725 -165.5 453.4325 -165.5 566.3125 C-143.72 566.3125 -121.94 566.3125 -99.5 566.3125 C-99.5 456.7525 -99.5 347.1925 -99.5 234.3125 C-121.28 234.3125 -143.06 234.3125 -165.5 234.3125 Z M-32.5 234.3125 C-32.5 256.0925 -32.5 277.8725 -32.5 300.3125 C33.17 300.3125 98.84 300.3125 166.5 300.3125 C166.5 278.5325 166.5 256.7525 166.5 234.3125 C100.83 234.3125 35.16 234.3125 -32.5 234.3125 Z M-32.5 367.3125 C-32.5 389.0925 -32.5 410.8725 -32.5 433.3125 C33.17 433.3125 98.84 433.3125 166.5 433.3125 C166.5 411.5325 166.5 389.7525 166.5 367.3125 C100.83 367.3125 35.16 367.3125 -32.5 367.3125 Z M-32.5 500.3125 C-32.5 522.0925 -32.5 543.8725 -32.5 566.3125 C33.17 566.3125 98.84 566.3125 166.5 566.3125 C166.5 544.5325 166.5 522.7525 166.5 500.3125 C100.83 500.3125 35.16 500.3125 -32.5 500.3125 Z " fill="#920039" transform="translate(399.5,-0.3125)"/>
</svg>
