<svg xmlns="http://www.w3.org/2000/svg" width="1001" height="1160" viewBox="0 0 1001 1160" version="1.1"><path d="" stroke="none" fill="#04d4fc" fill-rule="evenodd"/><path d="M 691.861 89.454 C 641.623 96.662, 583.257 130.159, 520.759 187.652 L 505.018 202.133 492.259 190.375 C 399.114 104.540, 307.749 69.597, 256.309 100.135 C 231.564 114.824, 214.665 147.760, 208.404 193.500 C 205.973 211.263, 205.952 253.356, 208.363 274.500 C 211.461 301.661, 216.001 326.927, 222.515 353.256 C 223.882 358.779, 225 363.437, 225 363.607 C 225 363.776, 221.738 364.863, 217.750 366.022 C 160.720 382.591, 119.701 400.474, 83.500 424.551 C 42.600 451.752, 19.574 480.439, 13.435 511.838 C 11.513 521.668, 11.645 528.652, 13.966 539.900 C 16.343 551.422, 24.136 567.853, 32.748 579.500 C 63.708 621.375, 127.991 659.876, 206.837 683.769 C 215.727 686.463, 223.264 688.930, 223.586 689.253 C 223.908 689.575, 222.357 697.637, 220.139 707.169 C 214.159 732.863, 210.942 751.485, 207.815 778.500 C 206.118 793.161, 206.095 842.653, 207.780 854.500 C 215.282 907.265, 233.134 939.533, 262.834 954.014 C 274.902 959.898, 282.511 961.346, 301.500 961.369 C 320.605 961.393, 330.386 959.785, 350.458 953.321 C 395.883 938.693, 450.624 903.389, 495.777 859.603 L 506.055 849.637 510.277 853.625 C 528.536 870.865, 542.763 883.311, 560 897.119 C 569.722 904.907, 591.145 919.596, 603.635 927.038 C 643.696 950.908, 676.703 962, 707.673 962 C 733.721 962, 750.702 955.302, 766.665 938.730 C 775.035 930.041, 778.548 925.014, 784.503 913.208 C 798.458 885.538, 804.816 849.066, 803.703 803.075 C 802.896 769.735, 799.293 741.461, 791.461 707 C 789.523 698.475, 787.689 690.357, 787.386 688.960 C 786.874 686.602, 787.215 686.323, 792.167 685.062 C 795.100 684.314, 805.150 681.145, 814.500 678.020 C 910.310 645.991, 977.095 597.297, 992.824 548 C 997.184 534.335, 997.961 524.182, 995.591 511.838 C 989.410 479.650, 962.782 448.411, 917.054 419.703 C 902.653 410.662, 868.125 393.412, 850.500 386.453 C 836.894 381.081, 793.386 366.527, 787.847 365.495 C 784.293 364.832, 784.218 364.727, 785.107 361.657 C 789.486 346.534, 796.591 308.483, 799.699 283.500 C 801.918 265.663, 802.219 210.661, 800.177 196 C 791.861 136.282, 768.099 100.404, 730.631 90.997 C 720.137 88.362, 703.958 87.718, 691.861 89.454 M 697 113.668 C 688.143 115.071, 677.633 117.464, 670.656 119.669 C 637.609 130.108, 595.040 155.862, 557.192 188.314 C 541.911 201.416, 523 219.012, 523 220.128 C 523 220.612, 526.661 224.944, 531.135 229.754 C 552.002 252.187, 578.325 284.493, 599.788 314.010 C 607.058 324.008, 613.342 332.768, 613.753 333.476 C 614.250 334.333, 621.199 335.489, 634.500 336.929 C 673.225 341.121, 708.080 346.701, 741.845 354.114 C 751.935 356.330, 760.326 357.998, 760.491 357.821 C 760.656 357.645, 762.401 350.525, 764.369 342 C 787.175 243.220, 779.736 157.387, 745.675 126.323 C 738.805 120.057, 731.790 116.485, 722.483 114.514 C 716.054 113.152, 702.996 112.719, 697 113.668 M 284.375 115.427 C 273.992 117.794, 267.166 121.649, 259.298 129.592 C 246.615 142.396, 237.987 163.780, 233.313 194 C 230.816 210.144, 230.820 254.509, 233.320 275 C 235.390 291.971, 239.108 314.565, 242.040 328 C 244.426 338.928, 248.891 357.225, 249.264 357.597 C 249.403 357.736, 252.213 357.208, 255.508 356.423 C 290.829 348.014, 339.966 340.244, 388.119 335.454 L 394.737 334.795 402.606 323.659 C 423.768 293.711, 457.110 252.810, 480.710 227.847 C 484.170 224.188, 487 220.721, 487 220.141 C 487 218.544, 459.989 194.247, 444.042 181.499 C 400.822 146.950, 357.592 123.814, 322.500 116.453 C 311.595 114.165, 292.202 113.643, 284.375 115.427 M 501.183 241.848 C 477.220 268.230, 453.260 297.006, 434.520 321.908 L 426.688 332.316 438.094 331.661 C 464.704 330.133, 521.616 329.763, 550.847 330.929 C 567.538 331.595, 581.384 331.950, 581.616 331.717 C 582.293 331.041, 555.285 295.795, 540.373 277.895 C 527.570 262.525, 506.277 238.686, 505.050 238.348 C 504.748 238.265, 503.007 239.840, 501.183 241.848 M 457.500 355.581 C 454.750 355.778, 442.662 356.469, 430.639 357.117 L 408.778 358.296 404.443 364.185 C 402.058 367.424, 395.432 377.370, 389.717 386.287 C 364.546 425.564, 343.619 462.135, 323.810 501.465 L 311.740 525.430 320.970 543.965 C 343.345 588.897, 370.838 636.319, 398 676.837 L 408.500 692.500 415.500 693.178 C 441.157 695.663, 514.407 696.649, 553 695.030 C 597.907 693.146, 600.159 692.936, 602.443 690.426 C 608.176 684.127, 643.747 626.149, 662.035 593.295 C 674.185 571.468, 697 526.854, 697 524.923 C 697 521.538, 668.550 467.993, 648.908 434.410 C 634.774 410.245, 605.332 363.634, 601.275 359 C 601.034 358.725, 593.336 357.940, 584.169 357.255 C 568.700 356.099, 468.750 354.778, 457.500 355.581 M 365 362.706 C 333.781 366.146, 259.562 379.353, 256.690 381.979 C 255.675 382.908, 269.476 424.544, 278.740 448.500 C 285.966 467.187, 298.123 496.244, 298.517 495.771 C 298.641 495.622, 303.590 486.275, 309.516 475 C 328.426 439.017, 346.222 408.303, 366.153 377.250 L 375.941 362 372.221 362.160 C 370.174 362.248, 366.925 362.494, 365 362.706 M 640.399 373.250 C 660.071 403.425, 683.435 443.690, 705.095 484.745 C 708.068 490.379, 710.743 494.992, 711.040 494.995 C 711.750 495.002, 726.488 460.191, 733.053 443 C 738.672 428.289, 754.067 382.733, 753.583 382.250 C 752.784 381.450, 714.922 373.662, 696.629 370.534 C 676.490 367.090, 639.943 362, 635.355 362 C 633.268 362, 633.713 362.993, 640.399 373.250 M 215 392.540 C 160.785 408.863, 113.652 431.273, 82.110 455.728 C 64.771 469.171, 48.722 487.607, 42.501 501.231 C 30.641 527.200, 38.344 552.292, 66.999 581.032 C 93.302 607.413, 134.718 631.736, 185 650.330 C 199.678 655.758, 230.083 665.250, 230.728 664.606 C 230.973 664.360, 235.354 651.636, 240.463 636.329 C 250.502 606.248, 264.352 570.512, 276.417 543.557 C 280.587 534.238, 284 526.122, 284 525.521 C 284 524.920, 280.583 516.794, 276.407 507.464 C 264.406 480.654, 250.519 444.821, 240.669 415.250 C 235.677 400.262, 231.122 388.039, 230.546 388.087 C 229.971 388.136, 222.975 390.139, 215 392.540 M 773.027 403.272 C 763.042 435.034, 749.509 470.272, 733.857 505.265 L 725 525.067 727.385 529.783 C 740.838 556.385, 762.023 608.663, 774.077 645 C 779.513 661.390, 780.028 662.478, 782.191 662.149 C 786.929 661.429, 819.069 650.584, 835 644.329 C 844.075 640.765, 860.050 633.623, 870.500 628.456 C 902.319 612.723, 923.763 598.138, 942.478 579.500 C 976.915 545.205, 980.829 517.854, 956.018 484.882 C 934.240 455.940, 884.517 424.904, 825.899 403.663 C 811.134 398.312, 781.311 388.990, 779.060 389.022 C 777.935 389.038, 776.254 393.007, 773.027 403.272 M 482.303 437.475 C 451.261 445.499, 426.819 469.398, 417.805 500.542 C 415.828 507.372, 415.501 510.767, 415.501 524.500 C 415.501 538.217, 415.829 541.631, 417.797 548.429 C 426.636 578.962, 450.038 602.364, 480.571 611.203 C 487.369 613.171, 490.783 613.499, 504.500 613.499 C 518.231 613.499, 521.628 613.172, 528.455 611.196 C 559.739 602.141, 583.643 577.573, 591.568 546.330 C 595.013 532.749, 594.990 516.161, 591.507 502.431 C 583.381 470.395, 558.605 445.619, 526.569 437.493 C 512.985 434.047, 495.595 434.040, 482.303 437.475 M 709.437 557.157 C 688.063 598.921, 657.554 651.910, 634.322 687.617 C 633.050 689.571, 633.119 689.707, 635.222 689.390 C 636.475 689.202, 645.600 688.102, 655.500 686.946 C 684.109 683.607, 736.515 674.415, 752.151 669.993 L 755.801 668.961 752.438 658.230 C 747.970 643.977, 737.788 616.265, 729.758 596.500 C 723.782 581.791, 712.188 554.965, 711.457 554.157 C 711.287 553.968, 710.378 555.318, 709.437 557.157 M 291.202 571.750 C 275.098 609.827, 254.017 669.887, 256.316 671.140 C 259.245 672.738, 302.262 680.729, 328 684.457 C 339.473 686.119, 372.485 689.996, 375.183 689.999 C 376.398 690, 373.871 685.343, 366.094 673.250 C 344.856 640.223, 320.848 598.610, 306.381 569.750 C 302.315 561.638, 298.830 555, 298.637 555 C 298.443 555, 295.098 562.538, 291.202 571.750 M 755.500 694.566 C 731.984 701.090, 670.890 710.871, 627.279 715.094 L 615.058 716.277 609.812 723.889 C 587.539 756.204, 557.271 794.673, 532.618 822 C 527.904 827.225, 524.036 831.786, 524.023 832.135 C 523.983 833.236, 553.138 859.560, 566.421 870.416 C 628.191 920.899, 689.033 945.658, 726 935.355 C 749.158 928.901, 765.578 905.906, 773.963 868.185 C 778.763 846.592, 780.519 807.306, 777.949 779 C 775.134 747.993, 764.682 692.857, 761.663 693.089 C 761.023 693.139, 758.250 693.803, 755.500 694.566 M 247.656 697.750 C 247.329 699.263, 245.465 707.475, 243.514 716 C 238.429 738.211, 234.363 762.827, 232.446 783 C 230.149 807.184, 230.862 844.257, 233.963 861.801 C 240.262 897.449, 253.110 920.914, 271.743 930.798 C 313.677 953.043, 402.264 915.157, 477.550 842.781 L 489.112 831.667 483.238 825.583 C 464.899 806.589, 440.409 777.274, 417.521 746.916 C 408.571 735.045, 400.015 723.468, 398.507 721.190 C 395.340 716.405, 396.703 716.751, 372 714.456 C 335.412 711.056, 296.798 705.292, 264.501 698.409 C 255.701 696.534, 248.445 695, 248.376 695 C 248.307 695, 247.983 696.237, 247.656 697.750 M 570 719.119 C 538.209 720.750, 492.594 721.148, 461.624 720.066 C 443.543 719.435, 428.530 719.136, 428.263 719.404 C 426.712 720.954, 474.108 779.375, 496.800 803.883 L 506.414 814.267 510.748 809.383 C 525.402 792.872, 539.193 776.559, 549.793 763.198 C 563.122 746.397, 583.459 719.036, 582.872 718.694 C 582.667 718.575, 576.875 718.767, 570 719.119 M 748 1040.500 L 748 1049 754.500 1049 L 761 1049 761 1040.500 L 761 1032 754.500 1032 L 748 1032 748 1040.500 M 54 1087.902 L 54 1140 61 1140 L 68 1140 68 1118.500 L 68 1097 79.040 1097 C 96.745 1097, 98.015 1098.068, 110.891 1123.783 L 119.012 1140 127.034 1140 L 135.056 1140 126 1122.054 C 116.717 1103.659, 110.761 1094.759, 106.403 1092.774 L 103.932 1091.648 106.716 1090.474 C 115.114 1086.934, 120.078 1079.149, 120.779 1068.421 C 121.461 1057.971, 119.112 1050.750, 113.152 1044.980 C 105.661 1037.727, 101.448 1036.742, 75.750 1036.234 L 54 1035.804 54 1087.902 M 499.700 1036.633 C 499.315 1037.018, 499 1060.433, 499 1088.667 L 499 1140 506.489 1140 L 513.978 1140 514.239 1098.102 L 514.500 1056.203 536.563 1097.852 L 558.626 1139.500 568.822 1139.785 L 579.018 1140.070 578.759 1088.285 L 578.500 1036.500 571.261 1036.206 L 564.022 1035.913 563.761 1078.055 L 563.500 1120.197 541.304 1078.348 L 519.109 1036.500 509.755 1036.216 C 504.610 1036.060, 500.086 1036.248, 499.700 1036.633 M 398 1051 L 398 1062 392.948 1062 L 387.895 1062 388.198 1067.250 L 388.500 1072.500 393.191 1072.802 L 397.881 1073.105 398.191 1099.802 C 398.486 1125.312, 398.601 1126.689, 400.763 1130.737 C 404.486 1137.705, 408.876 1139.367, 424.750 1139.819 L 438 1140.196 438 1134.709 L 438 1129.221 427.021 1128.845 C 414.468 1128.416, 413.266 1127.779, 411.927 1120.848 C 411.465 1118.457, 411.068 1106.726, 411.044 1094.779 L 411 1073.058 424.250 1072.779 L 437.500 1072.500 437.802 1067.250 L 438.105 1062 424.552 1062 L 411 1062 411 1051 L 411 1040 404.500 1040 L 398 1040 398 1051 M 692 1051 L 692 1062 687.500 1062 L 683 1062 683 1067.500 L 683 1073 687.426 1073 L 691.853 1073 692.176 1099.250 C 692.483 1124.103, 692.620 1125.743, 694.750 1130.066 C 698.510 1137.695, 702.744 1139.420, 718.750 1139.845 L 732 1140.196 732 1134.598 L 732 1129 723.149 1129 C 712.715 1129, 708.217 1127.700, 706.929 1124.312 C 706.418 1122.969, 706 1110.888, 706 1097.465 L 706 1073.060 718.750 1072.780 L 731.500 1072.500 731.802 1067.250 L 732.105 1062 719.052 1062 L 706 1062 706 1051 L 706 1040 699 1040 L 692 1040 692 1051 M 68 1066 L 68 1084 80.288 1084 C 91.049 1084, 93.128 1083.720, 97.015 1081.750 C 102.999 1078.717, 105.379 1074.392, 105.361 1066.587 C 105.328 1052.635, 98.368 1048, 77.451 1048 L 68 1048 68 1066 M 167.230 1061.486 C 160.519 1063.375, 157.480 1064.985, 152.468 1069.306 C 144.583 1076.105, 140.024 1087.899, 140.024 1101.500 C 140.024 1119.646, 147.254 1132.007, 161.880 1138.865 C 167.135 1141.329, 168.409 1141.497, 181.500 1141.450 C 193.804 1141.407, 196.348 1141.099, 202.500 1138.909 L 209.500 1136.418 209.801 1130.079 C 210.073 1124.351, 209.928 1123.797, 208.301 1124.334 C 207.310 1124.661, 203.338 1126.047, 199.473 1127.414 C 185.612 1132.315, 172.107 1131.758, 164.095 1125.954 C 159.582 1122.685, 155.619 1115.761, 154.533 1109.250 L 153.824 1105 182.943 1105 C 206.938 1105, 212.157 1104.754, 212.598 1103.604 C 213.585 1101.033, 211.174 1084.554, 209.107 1079.741 C 206.266 1073.125, 199.002 1065.677, 192.779 1063 C 186.128 1060.139, 174.470 1059.448, 167.230 1061.486 M 251 1060.686 C 249.625 1060.913, 245.238 1062.043, 241.250 1063.195 L 234 1065.291 234 1071.529 L 234 1077.768 240.250 1075.237 C 244.792 1073.398, 249.028 1072.572, 255.749 1072.217 C 266.543 1071.646, 272.403 1073.313, 276.433 1078.103 C 278.674 1080.766, 280.980 1086.610, 280.994 1089.664 C 280.998 1090.488, 276.229 1090.926, 264.644 1091.164 L 248.289 1091.500 241.433 1095 C 232.585 1099.517, 229.030 1104.758, 228.254 1114.427 C 227.263 1126.771, 232.088 1135.641, 242.150 1139.969 C 246.645 1141.903, 248.668 1142.161, 256.443 1141.796 C 266.805 1141.309, 271.387 1139.456, 277.313 1133.354 L 281 1129.558 281 1134.779 L 281 1140 287.500 1140 L 294 1140 294 1113.605 C 294 1090.143, 293.780 1086.500, 292.024 1080.814 C 289.769 1073.513, 284.660 1066.879, 279.143 1064.089 C 272.371 1060.664, 260.103 1059.180, 251 1060.686 M 342.500 1061.342 C 322.286 1066.622, 311.267 1085.499, 314.828 1108.750 C 317.071 1123.392, 323.989 1133.289, 335.880 1138.865 C 340.973 1141.253, 342.624 1141.500, 353.500 1141.500 C 362.550 1141.500, 366.790 1141.050, 370.750 1139.670 L 376 1137.839 376 1131.490 L 376 1125.140 370.250 1127.471 C 353.785 1134.147, 338.266 1130.282, 331.968 1117.937 C 327.588 1109.352, 327.613 1093.563, 332.019 1084.460 C 338.348 1071.386, 354.677 1068.313, 374.301 1076.502 C 375.942 1077.187, 376.075 1076.688, 375.801 1070.877 L 375.500 1064.500 370 1062.673 C 362.885 1060.309, 349.023 1059.638, 342.500 1061.342 M 624 1060.632 C 622.625 1060.902, 618.013 1062.045, 613.750 1063.171 L 606 1065.219 606 1071.559 L 606 1077.898 609.750 1076.311 C 616.710 1073.366, 623.463 1072.023, 631 1072.088 C 642.106 1072.183, 647.570 1074.772, 651.044 1081.586 C 652.120 1083.696, 653 1086.631, 653 1088.109 L 653 1090.794 636.750 1091.180 C 622.489 1091.519, 619.888 1091.844, 615.500 1093.837 C 605.088 1098.565, 600.620 1105.501, 600.578 1117 C 600.518 1133.360, 609.536 1141.854, 627.072 1141.956 C 636.835 1142.013, 643.056 1139.871, 648.625 1134.535 L 653 1130.343 653 1135.171 L 653 1140 660.105 1140 L 667.210 1140 666.755 1112.750 C 666.263 1083.297, 665.674 1079.466, 660.487 1071.982 C 657.582 1067.790, 652.429 1064.018, 647 1062.111 C 643.249 1060.793, 628.127 1059.821, 624 1060.632 M 893.230 1061.486 C 886.519 1063.375, 883.480 1064.985, 878.468 1069.306 C 870.583 1076.105, 866.024 1087.899, 866.024 1101.500 C 866.024 1119.646, 873.254 1132.007, 887.880 1138.865 C 893.135 1141.329, 894.409 1141.497, 907.500 1141.450 C 919.804 1141.407, 922.348 1141.099, 928.500 1138.909 L 935.500 1136.418 935.801 1130.079 C 936.073 1124.351, 935.928 1123.797, 934.301 1124.334 C 933.310 1124.661, 929.338 1126.047, 925.473 1127.414 C 911.612 1132.315, 898.107 1131.758, 890.095 1125.954 C 885.582 1122.685, 881.619 1115.761, 880.533 1109.250 L 879.824 1105 908.853 1105 C 926.490 1105, 938.117 1104.620, 938.480 1104.032 C 939.614 1102.198, 937.159 1084.491, 935.113 1079.741 C 932.261 1073.120, 924.998 1065.676, 918.779 1063 C 912.128 1060.139, 900.470 1059.448, 893.230 1061.486 M 748 1101 L 748 1140 754.500 1140 L 761 1140 761 1101 L 761 1062 754.500 1062 L 748 1062 748 1101 M 780.359 1068.250 C 781.647 1071.688, 788.226 1089.237, 794.978 1107.250 L 807.255 1140 816.378 1139.985 L 825.500 1139.970 839.762 1101.735 C 847.607 1080.706, 854.019 1063.162, 854.012 1062.750 C 854.006 1062.338, 850.918 1062, 847.150 1062 L 840.301 1062 828.426 1093.947 C 821.895 1111.517, 816.268 1125.434, 815.921 1124.872 C 815.574 1124.311, 810.163 1109.944, 803.895 1092.946 L 792.500 1062.039 785.259 1062.020 L 778.017 1062 780.359 1068.250 M 168 1073.594 C 161.279 1076.506, 156.895 1082.060, 155.135 1089.895 L 154.213 1094 176.734 1094 L 199.256 1094 198.599 1089.895 C 196.728 1078.193, 189.472 1071.966, 177.790 1072.039 C 174.330 1072.061, 169.925 1072.760, 168 1073.594 M 894 1073.594 C 887.279 1076.506, 882.895 1082.060, 881.135 1089.895 L 880.213 1094 902.734 1094 L 925.256 1094 924.599 1089.895 C 922.728 1078.193, 915.472 1071.966, 903.790 1072.039 C 900.330 1072.061, 895.925 1072.760, 894 1073.594 M 257.885 1102.036 C 245.948 1103.430, 241.513 1107.413, 241.646 1116.617 C 241.741 1123.205, 243.809 1126.556, 249.328 1129.062 C 257.196 1132.634, 265.795 1131.073, 272.550 1124.847 C 277.214 1120.548, 279.429 1115.426, 280.592 1106.250 L 281.258 1101 272.879 1101.131 C 268.270 1101.204, 261.523 1101.611, 257.885 1102.036 M 630.500 1101.966 C 618.728 1103.325, 614 1107.502, 614 1116.546 C 614 1124.686, 618.504 1129.422, 627.403 1130.642 C 641.386 1132.558, 653 1121.068, 653 1105.318 L 653 1101 644.750 1101.137 C 640.212 1101.212, 633.800 1101.585, 630.500 1101.966" stroke="none" fill="#04dcfc" fill-rule="evenodd"/></svg>